{
	"asset":{
		"generator":"Khronos glTF Blender I/O v3.6.28",
		"version":"2.0"
	},
	"extensionsUsed":[
		"KHR_materials_specular",
		"KHR_materials_ior"
	],
	"scene":0,
	"scenes":[
		{
			"name":"Scene",
			"nodes":[
				0
			]
		}
	],
	"nodes":[
		{
			"mesh":0,
			"name":"12",
			"rotation":[
				0.5,
				-0.5,
				0.5,
				0.5000000596046448
			]
		}
	],
	"materials":[
		{
			"doubleSided":true,
			"extensions":{
				"KHR_materials_specular":{
					"specularColorFactor":[
						0,
						0,
						0
					]
				},
				"KHR_materials_ior":{
					"ior":1.4500000476837158
				}
			},
			"name":"Material.004",
			"pbrMetallicRoughness":{
				"baseColorTexture":{
					"index":0
				},
				"metallicFactor":0,
				"roughnessFactor":0.5
			}
		}
	],
	"meshes":[
		{
			"name":"12",
			"primitives":[
				{
					"attributes":{
						"POSITION":0,
						"NORMAL":1,
						"TEXCOORD_0":2
					},
					"indices":3,
					"material":0
				}
			]
		}
	],
	"textures":[
		{
			"sampler":0,
			"source":0
		}
	],
	"images":[
		{
			"bufferView":4,
			"mimeType":"image/png",
			"name":"Handle1_diff"
		}
	],
	"accessors":[
		{
			"bufferView":0,
			"componentType":5126,
			"count":462,
			"max":[
				0.6930149793624878,
				0.6968560218811035,
				-0.46503499150276184
			],
			"min":[
				-0.6632220149040222,
				-0.6997449994087219,
				-1.503909945487976
			],
			"type":"VEC3"
		},
		{
			"bufferView":1,
			"componentType":5126,
			"count":462,
			"type":"VEC3"
		},
		{
			"bufferView":2,
			"componentType":5126,
			"count":462,
			"type":"VEC2"
		},
		{
			"bufferView":3,
			"componentType":5123,
			"count":2124,
			"type":"SCALAR"
		}
	],
	"bufferViews":[
		{
			"buffer":0,
			"byteLength":5544,
			"byteOffset":0,
			"target":34962
		},
		{
			"buffer":0,
			"byteLength":5544,
			"byteOffset":5544,
			"target":34962
		},
		{
			"buffer":0,
			"byteLength":3696,
			"byteOffset":11088,
			"target":34962
		},
		{
			"buffer":0,
			"byteLength":4248,
			"byteOffset":14784,
			"target":34963
		},
		{
			"buffer":0,
			"byteLength":60420,
			"byteOffset":19032
		}
	],
	"samplers":[
		{
			"magFilter":9729,
			"minFilter":9987
		}
	],
	"buffers":[
		{
			"byteLength":79452,
			"uri":"data:application/octet-stream;base64,"
		}
	]
}
