{
	"asset":{
		"generator":"Khronos glTF Blender I/O v3.6.28",
		"version":"2.0"
	},
	"extensionsUsed":[
		"KHR_materials_specular",
		"KHR_materials_ior"
	],
	"scene":0,
	"scenes":[
		{
			"name":"Scene",
			"nodes":[
				0
			]
		}
	],
	"nodes":[
		{
			"mesh":0,
			"name":"9",
			"rotation":[
				0.5,
				-0.5,
				0.5,
				0.5000000596046448
			]
		}
	],
	"materials":[
		{
			"doubleSided":true,
			"extensions":{
				"KHR_materials_specular":{
					"specularColorFactor":[
						0.2134221937803615,
						0.2134221937803615,
						0.2134221937803615
					]
				},
				"KHR_materials_ior":{
					"ior":1.4500000476837158
				}
			},
			"name":"Material.003",
			"pbrMetallicRoughness":{
				"baseColorTexture":{
					"index":0
				},
				"metallicFactor":0,
				"roughnessFactor":0.5
			}
		}
	],
	"meshes":[
		{
			"name":"9",
			"primitives":[
				{
					"attributes":{
						"POSITION":0,
						"NORMAL":1,
						"TEXCOORD_0":2
					},
					"indices":3,
					"material":0
				}
			]
		}
	],
	"textures":[
		{
			"sampler":0,
			"source":0
		}
	],
	"images":[
		{
			"bufferView":4,
			"mimeType":"image/png",
			"name":"Handle1_diff"
		}
	],
	"accessors":[
		{
			"bufferView":0,
			"componentType":5126,
			"count":667,
			"max":[
				0.7505099773406982,
				0.3546909987926483,
				-1.2089899778366089
			],
			"min":[
				-0.7505249977111816,
				-0.35414600372314453,
				-2.191009998321533
			],
			"type":"VEC3"
		},
		{
			"bufferView":1,
			"componentType":5126,
			"count":667,
			"type":"VEC3"
		},
		{
			"bufferView":2,
			"componentType":5126,
			"count":667,
			"type":"VEC2"
		},
		{
			"bufferView":3,
			"componentType":5123,
			"count":1644,
			"type":"SCALAR"
		}
	],
	"bufferViews":[
		{
			"buffer":0,
			"byteLength":8004,
			"byteOffset":0,
			"target":34962
		},
		{
			"buffer":0,
			"byteLength":8004,
			"byteOffset":8004,
			"target":34962
		},
		{
			"buffer":0,
			"byteLength":5336,
			"byteOffset":16008,
			"target":34962
		},
		{
			"buffer":0,
			"byteLength":3288,
			"byteOffset":21344,
			"target":34963
		},
		{
			"buffer":0,
			"byteLength":11020,
			"byteOffset":24632
		}
	],
	"samplers":[
		{
			"magFilter":9729,
			"minFilter":9987
		}
	],
	"buffers":[
		{
			"byteLength":35652,
			"uri":"data:application/octet-stream;base64,"
		}
	]
}
