{
	"asset":{
		"generator":"Khronos glTF Blender I/O v3.6.28",
		"version":"2.0"
	},
	"extensionsUsed":[
		"KHR_materials_specular",
		"KHR_materials_ior"
	],
	"scene":0,
	"scenes":[
		{
			"name":"Scene",
			"nodes":[
				0
			]
		}
	],
	"nodes":[
		{
			"mesh":0,
			"name":"ClockworkShades",
			"rotation":[
				0.7071068286895752,
				0,
				0,
				0.7071068286895752
			]
		}
	],
	"materials":[
		{
			"alphaMode":"BLEND",
			"doubleSided":true,
			"extensions":{
				"KHR_materials_specular":{
					"specularColorFactor":[
						0.14879107480351855,
						0.14879107480351855,
						0.14879107480351855
					]
				},
				"KHR_materials_ior":{
					"ior":1.4500000476837158
				}
			},
			"name":"Handle1Mtl.001",
			"pbrMetallicRoughness":{
				"baseColorTexture":{
					"index":0
				},
				"metallicFactor":0
			}
		}
	],
	"meshes":[
		{
			"name":"ClockworkShades.001",
			"primitives":[
				{
					"attributes":{
						"POSITION":0,
						"NORMAL":1,
						"TEXCOORD_0":2
					},
					"indices":3,
					"material":0
				}
			]
		}
	],
	"textures":[
		{
			"sampler":0,
			"source":0
		}
	],
	"images":[
		{
			"bufferView":4,
			"mimeType":"image/png",
			"name":"Handle1_diff"
		}
	],
	"accessors":[
		{
			"bufferView":0,
			"componentType":5126,
			"count":903,
			"max":[
				0.6012499928474426,
				0.2639620006084442,
				-4.610050201416016
			],
			"min":[
				-0.6212499737739563,
				-0.6439539790153503,
				-4.875959873199463
			],
			"type":"VEC3"
		},
		{
			"bufferView":1,
			"componentType":5126,
			"count":903,
			"type":"VEC3"
		},
		{
			"bufferView":2,
			"componentType":5126,
			"count":903,
			"type":"VEC2"
		},
		{
			"bufferView":3,
			"componentType":5123,
			"count":930,
			"type":"SCALAR"
		}
	],
	"bufferViews":[
		{
			"buffer":0,
			"byteLength":10836,
			"byteOffset":0,
			"target":34962
		},
		{
			"buffer":0,
			"byteLength":10836,
			"byteOffset":10836,
			"target":34962
		},
		{
			"buffer":0,
			"byteLength":7224,
			"byteOffset":21672,
			"target":34962
		},
		{
			"buffer":0,
			"byteLength":1860,
			"byteOffset":28896,
			"target":34963
		},
		{
			"buffer":0,
			"byteLength":2289,
			"byteOffset":30756
		}
	],
	"samplers":[
		{
			"magFilter":9729,
			"minFilter":9987
		}
	],
	"buffers":[
		{
			"byteLength":33048,
			"uri":"data:application/octet-stream;base64,"
		}
	]
}
