{
	"asset":{
		"generator":"Khronos glTF Blender I/O v3.6.28",
		"version":"2.0"
	},
	"extensionsUsed":[
		"KHR_materials_specular",
		"KHR_materials_ior"
	],
	"scene":0,
	"scenes":[
		{
			"name":"Scene",
			"nodes":[
				0
			]
		}
	],
	"nodes":[
		{
			"mesh":0,
			"name":"rOBLOXdUDE",
			"rotation":[
				0.7071068286895752,
				0,
				0,
				0.7071068286895752
			]
		}
	],
	"materials":[
		{
			"alphaMode":"BLEND",
			"doubleSided":true,
			"extensions":{
				"KHR_materials_specular":{
					"specularColorFactor":[
						0.14879107480351855,
						0.14879107480351855,
						0.14879107480351855
					]
				},
				"KHR_materials_ior":{
					"ior":1.4500000476837158
				}
			},
			"name":"Rig1Mtl",
			"pbrMetallicRoughness":{
				"baseColorTexture":{
					"index":0
				},
				"metallicFactor":0
			}
		}
	],
	"meshes":[
		{
			"name":"rOBLOXdUDE",
			"primitives":[
				{
					"attributes":{
						"POSITION":0,
						"NORMAL":1,
						"TEXCOORD_0":2
					},
					"indices":3,
					"material":0
				}
			]
		}
	],
	"textures":[
		{
			"sampler":0,
			"source":0
		}
	],
	"images":[
		{
			"bufferView":4,
			"mimeType":"image/png",
			"name":"Rig1_diff"
		}
	],
	"accessors":[
		{
			"bufferView":0,
			"componentType":5126,
			"count":6327,
			"max":[
				2,
				0.5992230176925659,
				-6.25848997515277e-07
			],
			"min":[
				-2,
				-0.5986779928207397,
				-5.101200103759766
			],
			"type":"VEC3"
		},
		{
			"bufferView":1,
			"componentType":5126,
			"count":6327,
			"type":"VEC3"
		},
		{
			"bufferView":2,
			"componentType":5126,
			"count":6327,
			"type":"VEC2"
		},
		{
			"bufferView":3,
			"componentType":5123,
			"count":12822,
			"type":"SCALAR"
		}
	],
	"bufferViews":[
		{
			"buffer":0,
			"byteLength":75924,
			"byteOffset":0,
			"target":34962
		},
		{
			"buffer":0,
			"byteLength":75924,
			"byteOffset":75924,
			"target":34962
		},
		{
			"buffer":0,
			"byteLength":50616,
			"byteOffset":151848,
			"target":34962
		},
		{
			"buffer":0,
			"byteLength":25644,
			"byteOffset":202464,
			"target":34963
		},
		{
			"buffer":0,
			"byteLength":13042,
			"byteOffset":228108
		}
	],
	"samplers":[
		{
			"magFilter":9729,
			"minFilter":9987
		}
	],
	"buffers":[
		{
			"byteLength":241152,
			"uri":"data:application/octet-stream;base64,"
		}
	]
}
