{
	"asset":{
		"generator":"Khronos glTF Blender I/O v3.6.28",
		"version":"2.0"
	},
	"extensionsUsed":[
		"KHR_materials_specular",
		"KHR_materials_ior"
	],
	"scene":0,
	"scenes":[
		{
			"name":"Scene",
			"nodes":[
				0
			]
		}
	],
	"nodes":[
		{
			"mesh":0,
			"name":"13",
			"rotation":[
				0.5,
				-0.5,
				0.5,
				0.5000000596046448
			]
		}
	],
	"materials":[
		{
			"alphaMode":"BLEND",
			"doubleSided":true,
			"extensions":{
				"KHR_materials_specular":{
					"specularColorFactor":[
						0.14879107480351855,
						0.14879107480351855,
						0.14879107480351855
					]
				},
				"KHR_materials_ior":{
					"ior":1.4500000476837158
				}
			},
			"name":"Handle1Mtl",
			"pbrMetallicRoughness":{
				"baseColorTexture":{
					"index":0
				},
				"metallicFactor":0
			}
		}
	],
	"meshes":[
		{
			"name":"13",
			"primitives":[
				{
					"attributes":{
						"POSITION":0,
						"NORMAL":1,
						"TEXCOORD_0":2
					},
					"indices":3,
					"material":0
				}
			]
		}
	],
	"textures":[
		{
			"sampler":0,
			"source":0
		}
	],
	"images":[
		{
			"bufferView":4,
			"mimeType":"image/png",
			"name":"Handle1_diff"
		}
	],
	"accessors":[
		{
			"bufferView":0,
			"componentType":5126,
			"count":1717,
			"max":[
				0.9109609723091125,
				1.6242300271987915,
				-1.1402499675750732
			],
			"min":[
				-0.9109609723091125,
				-0.8443899750709534,
				-3.298830032348633
			],
			"type":"VEC3"
		},
		{
			"bufferView":1,
			"componentType":5126,
			"count":1717,
			"type":"VEC3"
		},
		{
			"bufferView":2,
			"componentType":5126,
			"count":1717,
			"type":"VEC2"
		},
		{
			"bufferView":3,
			"componentType":5123,
			"count":3810,
			"type":"SCALAR"
		}
	],
	"bufferViews":[
		{
			"buffer":0,
			"byteLength":20604,
			"byteOffset":0,
			"target":34962
		},
		{
			"buffer":0,
			"byteLength":20604,
			"byteOffset":20604,
			"target":34962
		},
		{
			"buffer":0,
			"byteLength":13736,
			"byteOffset":41208,
			"target":34962
		},
		{
			"buffer":0,
			"byteLength":7620,
			"byteOffset":54944,
			"target":34963
		},
		{
			"buffer":0,
			"byteLength":105315,
			"byteOffset":62564
		}
	],
	"samplers":[
		{
			"magFilter":9729,
			"minFilter":9987
		}
	],
	"buffers":[
		{
			"byteLength":167880,
			"uri":"data:application/octet-stream;base64,"
		}
	]
}
