{
	"asset":{
		"generator":"Khronos glTF Blender I/O v3.6.28",
		"version":"2.0"
	},
	"extensionsUsed":[
		"KHR_materials_specular",
		"KHR_materials_ior"
	],
	"scene":0,
	"scenes":[
		{
			"name":"Scene",
			"nodes":[
				0
			]
		}
	],
	"nodes":[
		{
			"mesh":0,
			"name":"DefaultAvatar.001",
			"rotation":[
				0.5,
				0.5,
				-0.5,
				0.5000000596046448
			]
		}
	],
	"materials":[
		{
			"alphaMode":"BLEND",
			"doubleSided":true,
			"extensions":{
				"KHR_materials_specular":{
					"specularColorFactor":[
						0.14879107480351855,
						0.14879107480351855,
						0.14879107480351855
					]
				},
				"KHR_materials_ior":{
					"ior":1.4500000476837158
				}
			},
			"name":"Cr3p1Mtl",
			"pbrMetallicRoughness":{
				"baseColorTexture":{
					"index":0
				},
				"metallicFactor":0
			}
		}
	],
	"meshes":[
		{
			"name":"DefaultAvatar.001",
			"primitives":[
				{
					"attributes":{
						"POSITION":0,
						"NORMAL":1,
						"TEXCOORD_0":2,
						"TANGENT":3
					},
					"indices":4,
					"material":0
				}
			]
		}
	],
	"textures":[
		{
			"sampler":0,
			"source":0
		}
	],
	"images":[
		{
			"bufferView":5,
			"mimeType":"image/jpeg",
			"name":"Cr3p1_diff"
		}
	],
	"accessors":[
		{
			"bufferView":0,
			"componentType":5126,
			"count":727,
			"max":[
				2,
				0.598924994468689,
				3
			],
			"min":[
				-2,
				-0.598924994468689,
				-2.101210117340088
			],
			"type":"VEC3"
		},
		{
			"bufferView":1,
			"componentType":5126,
			"count":727,
			"type":"VEC3"
		},
		{
			"bufferView":2,
			"componentType":5126,
			"count":727,
			"type":"VEC2"
		},
		{
			"bufferView":3,
			"componentType":5126,
			"count":727,
			"type":"VEC4"
		},
		{
			"bufferView":4,
			"componentType":5123,
			"count":3198,
			"type":"SCALAR"
		}
	],
	"bufferViews":[
		{
			"buffer":0,
			"byteLength":8724,
			"byteOffset":0,
			"target":34962
		},
		{
			"buffer":0,
			"byteLength":8724,
			"byteOffset":8724,
			"target":34962
		},
		{
			"buffer":0,
			"byteLength":5816,
			"byteOffset":17448,
			"target":34962
		},
		{
			"buffer":0,
			"byteLength":11632,
			"byteOffset":23264,
			"target":34962
		},
		{
			"buffer":0,
			"byteLength":6396,
			"byteOffset":34896,
			"target":34963
		},
		{
			"buffer":0,
			"byteLength":34028,
			"byteOffset":41292
		}
	],
	"samplers":[
		{
			"magFilter":9729,
			"minFilter":9987
		}
	],
	"buffers":[
		{
			"byteLength":75320,
			"uri":"data:application/octet-stream;base64,"
		}
	]
}
