{
	"asset":{
		"generator":"Khronos glTF Blender I/O v3.6.28",
		"version":"2.0"
	},
	"extensionsUsed":[
		"KHR_materials_specular",
		"KHR_materials_ior"
	],
	"scene":0,
	"scenes":[
		{
			"name":"Scene",
			"nodes":[
				0
			]
		}
	],
	"nodes":[
		{
			"mesh":0,
			"name":"11",
			"rotation":[
				0.5,
				-0.5,
				0.5,
				0.5000000596046448
			]
		}
	],
	"materials":[
		{
			"doubleSided":true,
			"extensions":{
				"KHR_materials_specular":{
					"specularColorFactor":[
						0,
						0,
						0
					]
				},
				"KHR_materials_ior":{
					"ior":1.4500000476837158
				}
			},
			"name":"Material.001",
			"pbrMetallicRoughness":{
				"baseColorTexture":{
					"index":0
				},
				"metallicFactor":0,
				"roughnessFactor":0.5
			}
		}
	],
	"meshes":[
		{
			"name":"11",
			"primitives":[
				{
					"attributes":{
						"POSITION":0,
						"NORMAL":1,
						"TEXCOORD_0":2
					},
					"indices":3,
					"material":0
				}
			]
		}
	],
	"textures":[
		{
			"sampler":0,
			"source":0
		}
	],
	"images":[
		{
			"bufferView":4,
			"mimeType":"image/png",
			"name":"Handle1_diff"
		}
	],
	"accessors":[
		{
			"bufferView":0,
			"componentType":5126,
			"count":4992,
			"max":[
				1.022510051727295,
				0.8764349818229675,
				-0.65317302942276
			],
			"min":[
				-1.0227099657058716,
				-0.8773199915885925,
				-2.346829891204834
			],
			"type":"VEC3"
		},
		{
			"bufferView":1,
			"componentType":5126,
			"count":4992,
			"type":"VEC3"
		},
		{
			"bufferView":2,
			"componentType":5126,
			"count":4992,
			"type":"VEC2"
		},
		{
			"bufferView":3,
			"componentType":5123,
			"count":11994,
			"type":"SCALAR"
		}
	],
	"bufferViews":[
		{
			"buffer":0,
			"byteLength":59904,
			"byteOffset":0,
			"target":34962
		},
		{
			"buffer":0,
			"byteLength":59904,
			"byteOffset":59904,
			"target":34962
		},
		{
			"buffer":0,
			"byteLength":39936,
			"byteOffset":119808,
			"target":34962
		},
		{
			"buffer":0,
			"byteLength":23988,
			"byteOffset":159744,
			"target":34963
		},
		{
			"buffer":0,
			"byteLength":27562,
			"byteOffset":183732
		}
	],
	"samplers":[
		{
			"magFilter":9729,
			"minFilter":9987
		}
	],
	"buffers":[
		{
			"byteLength":211296,
			"uri":"data:application/octet-stream;base64,"
		}
	]
}
