{
	"asset":{
		"generator":"Khronos glTF Blender I/O v3.6.28",
		"version":"2.0"
	},
	"extensionsUsed":[
		"KHR_materials_specular",
		"KHR_materials_ior"
	],
	"scene":0,
	"scenes":[
		{
			"name":"Scene",
			"nodes":[
				0,
				1,
				2,
				3,
				4
			]
		}
	],
	"nodes":[
		{
			"mesh":0,
			"name":"0",
			"rotation":[
				0.5,
				-0.5,
				0.5,
				0.5000000596046448
			]
		},
		{
			"mesh":1,
			"name":"7",
			"rotation":[
				0.5,
				-0.5,
				0.5,
				0.5000000596046448
			]
		},
		{
			"mesh":2,
			"name":"9",
			"rotation":[
				0.5,
				-0.5,
				0.5,
				0.5000000596046448
			]
		},
		{
			"mesh":3,
			"name":"10",
			"rotation":[
				0.5,
				-0.5,
				0.5,
				0.5000000596046448
			]
		},
		{
			"mesh":4,
			"name":"11",
			"rotation":[
				0.5,
				-0.5,
				0.5,
				0.5000000596046448
			]
		}
	],
	"materials":[
		{
			"doubleSided":true,
			"name":"Bofy",
			"pbrMetallicRoughness":{
				"metallicFactor":0,
				"roughnessFactor":0.5
			}
		},
		{
			"doubleSided":true,
			"extensions":{
				"KHR_materials_specular":{
					"specularColorFactor":[
						0,
						0,
						0
					]
				},
				"KHR_materials_ior":{
					"ior":1.4500000476837158
				}
			},
			"name":"Material.002",
			"pbrMetallicRoughness":{
				"metallicFactor":0,
				"roughnessFactor":0.5
			}
		},
		{
			"doubleSided":true,
			"extensions":{
				"KHR_materials_specular":{
					"specularColorFactor":[
						0.2134221937803615,
						0.2134221937803615,
						0.2134221937803615
					]
				},
				"KHR_materials_ior":{
					"ior":1.4500000476837158
				}
			},
			"name":"Material.003",
			"pbrMetallicRoughness":{
				"baseColorTexture":{
					"index":0
				},
				"metallicFactor":0,
				"roughnessFactor":0.5
			}
		},
		{
			"doubleSided":true,
			"extensions":{
				"KHR_materials_specular":{
					"specularColorFactor":[
						0,
						0,
						0
					]
				},
				"KHR_materials_ior":{
					"ior":1.4500000476837158
				}
			},
			"name":"Material",
			"pbrMetallicRoughness":{
				"baseColorTexture":{
					"index":1
				},
				"metallicFactor":0,
				"roughnessFactor":0.5
			}
		},
		{
			"doubleSided":true,
			"extensions":{
				"KHR_materials_specular":{
					"specularColorFactor":[
						0,
						0,
						0
					]
				},
				"KHR_materials_ior":{
					"ior":1.4500000476837158
				}
			},
			"name":"Material.001",
			"pbrMetallicRoughness":{
				"baseColorTexture":{
					"index":2
				},
				"metallicFactor":0,
				"roughnessFactor":0.5
			}
		}
	],
	"meshes":[
		{
			"name":"0",
			"primitives":[
				{
					"attributes":{
						"POSITION":0,
						"NORMAL":1,
						"TEXCOORD_0":2
					},
					"indices":3,
					"material":0
				}
			]
		},
		{
			"name":"7.001",
			"primitives":[
				{
					"attributes":{
						"POSITION":4,
						"NORMAL":5,
						"TEXCOORD_0":6
					},
					"indices":7,
					"material":1
				}
			]
		},
		{
			"name":"9",
			"primitives":[
				{
					"attributes":{
						"POSITION":8,
						"NORMAL":9,
						"TEXCOORD_0":10
					},
					"indices":11,
					"material":2
				}
			]
		},
		{
			"name":"10",
			"primitives":[
				{
					"attributes":{
						"POSITION":12,
						"NORMAL":13,
						"TEXCOORD_0":14
					},
					"indices":15,
					"material":3
				}
			]
		},
		{
			"name":"11",
			"primitives":[
				{
					"attributes":{
						"POSITION":16,
						"NORMAL":17,
						"TEXCOORD_0":18
					},
					"indices":19,
					"material":4
				}
			]
		}
	],
	"textures":[
		{
			"sampler":0,
			"source":0
		},
		{
			"sampler":0,
			"source":1
		},
		{
			"sampler":0,
			"source":2
		}
	],
	"images":[
		{
			"bufferView":12,
			"mimeType":"image/png",
			"name":"Handle1_diff"
		},
		{
			"bufferView":17,
			"mimeType":"image/png",
			"name":"Handle1_diff"
		},
		{
			"bufferView":22,
			"mimeType":"image/png",
			"name":"Handle1_diff"
		}
	],
	"accessors":[
		{
			"bufferView":0,
			"componentType":5126,
			"count":636,
			"max":[
				2,
				0.5989500284194946,
				3
			],
			"min":[
				-2,
				-0.5989500284194946,
				-2.1012001037597656
			],
			"type":"VEC3"
		},
		{
			"bufferView":1,
			"componentType":5126,
			"count":636,
			"type":"VEC3"
		},
		{
			"bufferView":2,
			"componentType":5126,
			"count":636,
			"type":"VEC2"
		},
		{
			"bufferView":3,
			"componentType":5123,
			"count":2820,
			"type":"SCALAR"
		},
		{
			"bufferView":4,
			"componentType":5126,
			"count":701,
			"max":[
				1.5550299882888794,
				1.5385799407958984,
				-0.43377599120140076
			],
			"min":[
				-1.5550299882888794,
				-1.2229000329971313,
				-2.6290600299835205
			],
			"type":"VEC3"
		},
		{
			"bufferView":5,
			"componentType":5126,
			"count":701,
			"type":"VEC3"
		},
		{
			"bufferView":6,
			"componentType":5126,
			"count":701,
			"type":"VEC2"
		},
		{
			"bufferView":7,
			"componentType":5123,
			"count":1656,
			"type":"SCALAR"
		},
		{
			"bufferView":8,
			"componentType":5126,
			"count":667,
			"max":[
				0.7505099773406982,
				0.3546909987926483,
				-1.2089899778366089
			],
			"min":[
				-0.7505249977111816,
				-0.35414600372314453,
				-2.191009998321533
			],
			"type":"VEC3"
		},
		{
			"bufferView":9,
			"componentType":5126,
			"count":667,
			"type":"VEC3"
		},
		{
			"bufferView":10,
			"componentType":5126,
			"count":667,
			"type":"VEC2"
		},
		{
			"bufferView":11,
			"componentType":5123,
			"count":1644,
			"type":"SCALAR"
		},
		{
			"bufferView":13,
			"componentType":5126,
			"count":1043,
			"max":[
				0.8735650181770325,
				1.022510051727295,
				-1.8037699460983276
			],
			"min":[
				-0.8735650181770325,
				-1.045490026473999,
				-2.463779926300049
			],
			"type":"VEC3"
		},
		{
			"bufferView":14,
			"componentType":5126,
			"count":1043,
			"type":"VEC3"
		},
		{
			"bufferView":15,
			"componentType":5126,
			"count":1043,
			"type":"VEC2"
		},
		{
			"bufferView":16,
			"componentType":5123,
			"count":2250,
			"type":"SCALAR"
		},
		{
			"bufferView":18,
			"componentType":5126,
			"count":4992,
			"max":[
				1.022510051727295,
				0.8764349818229675,
				-0.65317302942276
			],
			"min":[
				-1.0227099657058716,
				-0.8773199915885925,
				-2.346829891204834
			],
			"type":"VEC3"
		},
		{
			"bufferView":19,
			"componentType":5126,
			"count":4992,
			"type":"VEC3"
		},
		{
			"bufferView":20,
			"componentType":5126,
			"count":4992,
			"type":"VEC2"
		},
		{
			"bufferView":21,
			"componentType":5123,
			"count":11994,
			"type":"SCALAR"
		}
	],
	"bufferViews":[
		{
			"buffer":0,
			"byteLength":7632,
			"byteOffset":0,
			"target":34962
		},
		{
			"buffer":0,
			"byteLength":7632,
			"byteOffset":7632,
			"target":34962
		},
		{
			"buffer":0,
			"byteLength":5088,
			"byteOffset":15264,
			"target":34962
		},
		{
			"buffer":0,
			"byteLength":5640,
			"byteOffset":20352,
			"target":34963
		},
		{
			"buffer":0,
			"byteLength":8412,
			"byteOffset":25992,
			"target":34962
		},
		{
			"buffer":0,
			"byteLength":8412,
			"byteOffset":34404,
			"target":34962
		},
		{
			"buffer":0,
			"byteLength":5608,
			"byteOffset":42816,
			"target":34962
		},
		{
			"buffer":0,
			"byteLength":3312,
			"byteOffset":48424,
			"target":34963
		},
		{
			"buffer":0,
			"byteLength":8004,
			"byteOffset":51736,
			"target":34962
		},
		{
			"buffer":0,
			"byteLength":8004,
			"byteOffset":59740,
			"target":34962
		},
		{
			"buffer":0,
			"byteLength":5336,
			"byteOffset":67744,
			"target":34962
		},
		{
			"buffer":0,
			"byteLength":3288,
			"byteOffset":73080,
			"target":34963
		},
		{
			"buffer":0,
			"byteLength":11020,
			"byteOffset":76368
		},
		{
			"buffer":0,
			"byteLength":12516,
			"byteOffset":87388,
			"target":34962
		},
		{
			"buffer":0,
			"byteLength":12516,
			"byteOffset":99904,
			"target":34962
		},
		{
			"buffer":0,
			"byteLength":8344,
			"byteOffset":112420,
			"target":34962
		},
		{
			"buffer":0,
			"byteLength":4500,
			"byteOffset":120764,
			"target":34963
		},
		{
			"buffer":0,
			"byteLength":57460,
			"byteOffset":125264
		},
		{
			"buffer":0,
			"byteLength":59904,
			"byteOffset":182724,
			"target":34962
		},
		{
			"buffer":0,
			"byteLength":59904,
			"byteOffset":242628,
			"target":34962
		},
		{
			"buffer":0,
			"byteLength":39936,
			"byteOffset":302532,
			"target":34962
		},
		{
			"buffer":0,
			"byteLength":23988,
			"byteOffset":342468,
			"target":34963
		},
		{
			"buffer":0,
			"byteLength":27562,
			"byteOffset":366456
		}
	],
	"samplers":[
		{
			"magFilter":9729,
			"minFilter":9987
		}
	],
	"buffers":[
		{
			"byteLength":394020,
			"uri":"data:application/octet-stream;base64,"
		}
	]
}
