{
	"asset":{
		"generator":"Khronos glTF Blender I/O v3.6.28",
		"version":"2.0"
	},
	"scene":0,
	"scenes":[
		{
			"name":"Scene",
			"nodes":[
				0
			]
		}
	],
	"nodes":[
		{
			"mesh":0,
			"name":"6",
			"rotation":[
				0.5,
				-0.5,
				0.5,
				0.5000000596046448
			]
		}
	],
	"materials":[
		{
			"doubleSided":true,
			"name":"Material.001",
			"pbrMetallicRoughness":{
				"baseColorTexture":{
					"index":0
				},
				"metallicFactor":0,
				"roughnessFactor":0.5
			}
		}
	],
	"meshes":[
		{
			"name":"6",
			"primitives":[
				{
					"attributes":{
						"POSITION":0,
						"NORMAL":1,
						"TEXCOORD_0":2
					},
					"indices":3,
					"material":0
				}
			]
		}
	],
	"textures":[
		{
			"sampler":0,
			"source":0
		}
	],
	"images":[
		{
			"bufferView":4,
			"mimeType":"image/png",
			"name":"Handle1_diff"
		}
	],
	"accessors":[
		{
			"bufferView":0,
			"componentType":5126,
			"count":2315,
			"max":[
				0.9109600186347961,
				1.6218899488449097,
				-1.1308200359344482
			],
			"min":[
				-0.9109600186347961,
				-0.8467410206794739,
				-3.2903599739074707
			],
			"type":"VEC3"
		},
		{
			"bufferView":1,
			"componentType":5126,
			"count":2315,
			"type":"VEC3"
		},
		{
			"bufferView":2,
			"componentType":5126,
			"count":2315,
			"type":"VEC2"
		},
		{
			"bufferView":3,
			"componentType":5123,
			"count":3765,
			"type":"SCALAR"
		}
	],
	"bufferViews":[
		{
			"buffer":0,
			"byteLength":27780,
			"byteOffset":0,
			"target":34962
		},
		{
			"buffer":0,
			"byteLength":27780,
			"byteOffset":27780,
			"target":34962
		},
		{
			"buffer":0,
			"byteLength":18520,
			"byteOffset":55560,
			"target":34962
		},
		{
			"buffer":0,
			"byteLength":7530,
			"byteOffset":74080,
			"target":34963
		},
		{
			"buffer":0,
			"byteLength":31157,
			"byteOffset":81612
		}
	],
	"samplers":[
		{
			"magFilter":9729,
			"minFilter":9987
		}
	],
	"buffers":[
		{
			"byteLength":112772,
			"uri":"data:application/octet-stream;base64,"
		}
	]
}
