{
	"asset":{
		"generator":"Khronos glTF Blender I/O v3.6.28",
		"version":"2.0"
	},
	"extensionsUsed":[
		"KHR_materials_specular",
		"KHR_materials_ior"
	],
	"scene":0,
	"scenes":[
		{
			"name":"Scene",
			"nodes":[
				0
			]
		}
	],
	"nodes":[
		{
			"mesh":0,
			"name":"7",
			"rotation":[
				0.5,
				-0.5,
				0.5,
				0.5000000596046448
			]
		}
	],
	"materials":[
		{
			"doubleSided":true,
			"extensions":{
				"KHR_materials_specular":{
					"specularColorFactor":[
						0,
						0,
						0
					]
				},
				"KHR_materials_ior":{
					"ior":1.4500000476837158
				}
			},
			"name":"Material.002",
			"pbrMetallicRoughness":{
				"baseColorTexture":{
					"index":0
				},
				"metallicFactor":0,
				"roughnessFactor":0.5
			}
		}
	],
	"meshes":[
		{
			"name":"7.001",
			"primitives":[
				{
					"attributes":{
						"POSITION":0,
						"NORMAL":1,
						"TEXCOORD_0":2
					},
					"indices":3,
					"material":0
				}
			]
		}
	],
	"textures":[
		{
			"sampler":0,
			"source":0
		}
	],
	"images":[
		{
			"bufferView":4,
			"mimeType":"image/png",
			"name":"Handle1_diff"
		}
	],
	"accessors":[
		{
			"bufferView":0,
			"componentType":5126,
			"count":701,
			"max":[
				1.5550299882888794,
				1.5385799407958984,
				-0.43377599120140076
			],
			"min":[
				-1.5550299882888794,
				-1.2229000329971313,
				-2.6290600299835205
			],
			"type":"VEC3"
		},
		{
			"bufferView":1,
			"componentType":5126,
			"count":701,
			"type":"VEC3"
		},
		{
			"bufferView":2,
			"componentType":5126,
			"count":701,
			"type":"VEC2"
		},
		{
			"bufferView":3,
			"componentType":5123,
			"count":1656,
			"type":"SCALAR"
		}
	],
	"bufferViews":[
		{
			"buffer":0,
			"byteLength":8412,
			"byteOffset":0,
			"target":34962
		},
		{
			"buffer":0,
			"byteLength":8412,
			"byteOffset":8412,
			"target":34962
		},
		{
			"buffer":0,
			"byteLength":5608,
			"byteOffset":16824,
			"target":34962
		},
		{
			"buffer":0,
			"byteLength":3312,
			"byteOffset":22432,
			"target":34963
		},
		{
			"buffer":0,
			"byteLength":60290,
			"byteOffset":25744
		}
	],
	"samplers":[
		{
			"magFilter":9729,
			"minFilter":9987
		}
	],
	"buffers":[
		{
			"byteLength":86036,
			"uri":"data:application/octet-stream;base64,"
		}
	]
}
