{
	"asset":{
		"generator":"Khronos glTF Blender I/O v3.6.28",
		"version":"2.0"
	},
	"scene":0,
	"scenes":[
		{
			"name":"Scene",
			"nodes":[
				0
			]
		}
	],
	"nodes":[
		{
			"mesh":0,
			"name":"0",
			"rotation":[
				0.5,
				-0.5,
				0.5,
				0.5000000596046448
			]
		}
	],
	"materials":[
		{
			"doubleSided":true,
			"name":"Bofy",
			"pbrMetallicRoughness":{
				"baseColorTexture":{
					"index":0
				},
				"metallicFactor":0,
				"roughnessFactor":0.5
			}
		}
	],
	"meshes":[
		{
			"name":"0",
			"primitives":[
				{
					"attributes":{
						"POSITION":0,
						"NORMAL":1,
						"TEXCOORD_0":2,
						"TANGENT":3
					},
					"indices":4,
					"material":0
				}
			]
		}
	],
	"textures":[
		{
			"sampler":0,
			"source":0
		}
	],
	"images":[
		{
			"bufferView":5,
			"mimeType":"image/jpeg",
			"name":"Vivalanick111_diff"
		}
	],
	"accessors":[
		{
			"bufferView":0,
			"componentType":5126,
			"count":636,
			"max":[
				2,
				0.5989500284194946,
				3
			],
			"min":[
				-2,
				-0.5989500284194946,
				-2.1012001037597656
			],
			"type":"VEC3"
		},
		{
			"bufferView":1,
			"componentType":5126,
			"count":636,
			"type":"VEC3"
		},
		{
			"bufferView":2,
			"componentType":5126,
			"count":636,
			"type":"VEC2"
		},
		{
			"bufferView":3,
			"componentType":5126,
			"count":636,
			"type":"VEC4"
		},
		{
			"bufferView":4,
			"componentType":5123,
			"count":2820,
			"type":"SCALAR"
		}
	],
	"bufferViews":[
		{
			"buffer":0,
			"byteLength":7632,
			"byteOffset":0,
			"target":34962
		},
		{
			"buffer":0,
			"byteLength":7632,
			"byteOffset":7632,
			"target":34962
		},
		{
			"buffer":0,
			"byteLength":5088,
			"byteOffset":15264,
			"target":34962
		},
		{
			"buffer":0,
			"byteLength":10176,
			"byteOffset":20352,
			"target":34962
		},
		{
			"buffer":0,
			"byteLength":5640,
			"byteOffset":30528,
			"target":34963
		},
		{
			"buffer":0,
			"byteLength":18162,
			"byteOffset":36168
		}
	],
	"samplers":[
		{
			"magFilter":9729,
			"minFilter":9987
		}
	],
	"buffers":[
		{
			"byteLength":54332,
			"uri":"data:application/octet-stream;base64,"
		}
	]
}
